<svg version="1.1" xmlns="http://www.w3.org/2000/svg" style="display: block;" viewBox="0 0 2048 2048" width="1024" height="1024" preserveAspectRatio="none">
  <defs>
    <filter id="logoShadow" x="-10%" y="-10%" width="120%" height="120%">
      <feDropShadow dx="0" dy="18" stdDeviation="18" flood-color="black" flood-opacity="0.18"/>
    </filter>
  </defs>

  <g filter="url(#logoShadow)">
    <path transform="translate(0,0)" fill="rgb(250,197,78)" d="M 1207.48 1610.7 C 1199.28 1612.31 1162.5 1611.41 1152.32 1611.36 L 1053.1 1611.46 L 839.365 1611.53 L 738.472 1611.57 C 715.872 1611.6 688.713 1613.83 666.819 1608.68 C 637.77 1601.84 608.974 1571.18 604.152 1541.57 C 598.826 1508.86 595.199 1474.29 591.041 1441.04 L 567.819 1256.33 L 536.163 1003.37 C 531.296 963.812 526.443 924.349 521.631 884.689 C 516.911 854.1 530.368 825 554.249 805.545 C 600.678 767.72 675.536 779.88 708.246 830.149 C 718.703 846.22 720.973 868.194 743.042 873.273 C 778.481 881.428 784.426 847.005 799.235 824.693 C 840.038 763.527 936.476 771.066 971.192 834.384 C 978.516 847.716 984.944 871.038 1002.14 873.545 C 1027.81 877.288 1035.47 845.35 1047.14 829.298 C 1078.63 781.616 1158.09 781.75 1190.63 828.157 C 1204.46 847.888 1217.94 887.825 1246.36 844.536 C 1250.6 838.077 1254.21 830.522 1258.68 824.028 C 1295.26 770.848 1385.9 770.203 1423.6 822.334 C 1432.45 834.673 1437.66 849.25 1438.63 864.404 C 1439.19 873.93 1437.46 885.416 1436.11 894.97 C 1425.87 967.535 1417.72 1040.79 1406.22 1113.13 C 1406.75 1113.24 1407.28 1113.35 1407.82 1113.45 C 1430.13 1117.49 1458.44 1108.57 1476.41 1095.42 C 1482.2 1091.19 1499.39 1071.97 1503.94 1072.46 C 1515.46 1073.69 1600.19 1116.6 1606.89 1125.18 C 1609.41 1128.41 1610.83 1135.1 1610.25 1139.11 C 1609.35 1145.36 1605.42 1153 1602.64 1158.66 C 1594.68 1174.81 1585.33 1190.33 1576.99 1206.3 L 1484.44 1380.66 L 1401.84 1536.57 C 1383.08 1572.09 1364.08 1607.76 1344.72 1642.98 C 1337.75 1655.66 1329.83 1664.65 1314.12 1660.88 C 1302.78 1658.16 1292.97 1652.66 1282.53 1647.43 L 1236.07 1624.18 C 1227.58 1619.94 1216.14 1613.77 1207.48 1610.7 z"/>

    <path transform="translate(0,0)" fill="rgb(125,73,168)" d="M 1142.52 1066.1 C 1146.5 1057.34 1154.1 1044.13 1158.79 1035.22 L 1191.97 972.256 C 1198.13 960.649 1211.43 929.893 1224.35 928.942 C 1238 927.937 1272.25 947.49 1285.54 954.405 C 1302.22 963.084 1324.01 972.6 1338.92 982.484 C 1332.74 992.21 1328.73 999.385 1326.23 1010.84 C 1321.52 1032.07 1325.65 1054.29 1337.67 1072.41 C 1355.17 1099.08 1376.59 1107.16 1406.22 1113.13 C 1406.75 1113.24 1407.28 1113.35 1407.82 1113.45 C 1430.13 1117.49 1458.44 1108.57 1476.41 1095.42 C 1482.2 1091.19 1499.39 1071.97 1503.94 1072.46 C 1515.46 1073.69 1600.19 1116.6 1606.89 1125.18 C 1609.41 1128.41 1610.83 1135.1 1610.25 1139.11 C 1609.35 1145.36 1605.42 1153 1602.64 1158.66 C 1594.68 1174.81 1585.33 1190.33 1576.99 1206.3 L 1484.44 1380.66 L 1401.84 1536.57 C 1383.08 1572.09 1364.08 1607.76 1344.72 1642.98 C 1337.75 1655.66 1329.83 1664.65 1314.12 1660.88 C 1302.78 1658.16 1292.97 1652.66 1282.53 1647.43 L 1236.07 1624.18 C 1227.58 1619.94 1216.14 1613.77 1207.48 1610.7 C 1200.39 1606.73 1201.31 1602.87 1204.45 1596.16 C 1252.88 1492.55 1106.48 1411.36 1047.15 1516.88 C 1018.18 1504.11 989.785 1487.52 960.962 1473.94 C 946.301 1467.02 934.611 1456.93 941.963 1438.63 C 947.075 1425.91 954.487 1413.49 960.99 1401.34 C 972.002 1380.88 982.906 1360.36 993.703 1339.79 C 1017.83 1293.33 1042.22 1247.01 1066.87 1200.83 C 1078.83 1178.47 1091.19 1154.48 1103.9 1132.68 C 1143.9 1144.53 1176.73 1097.94 1142.52 1066.1 z"/>

    <!-- Popcorn: leicht dunkler für mehr Kontrast auf hellen Hintergründen -->
    <path transform="translate(0,0)" fill="rgb(247,238,210)" d="M 966.971 401.439 C 1044.05 395.255 1123.13 456.95 1133.61 534.129 C 1142.8 529.958 1152.63 527.378 1162.55 525.692 C 1198.1 519.712 1234.57 528.059 1263.97 548.906 C 1293.1 569.655 1312.89 601.036 1319.07 636.262 C 1367.26 636.272 1408.74 665.35 1429.31 708.212 C 1440.57 731.666 1443.53 754.489 1442.71 780.261 C 1440.47 778.336 1438.18 776.475 1435.84 774.682 C 1402.31 749.034 1359.86 737.964 1318.07 743.967 C 1279.81 749.533 1245.31 770.015 1222.1 800.94 C 1216.14 793.221 1209.39 786.154 1201.95 779.854 C 1156.04 741.686 1087.75 739.72 1040.78 777.635 C 1028.26 787.743 1018.85 798.88 1008.67 811.228 C 1001.34 800.895 996.354 793.88 987.287 785.164 C 981.029 779.279 974.329 773.882 967.246 769.021 C 911.302 730.705 834.433 734.885 782.959 779.293 C 769.57 790.844 761.968 800.982 752.107 815.355 C 747.932 811.344 743.769 804.711 740.267 799.966 C 694.563 738.04 604.703 726.394 540.187 764.927 C 531.935 769.855 517.046 783.82 509.411 785.31 L 508.291 783.838 C 506.058 724.185 530.089 672.54 578.944 637.304 C 603.652 619.484 626.568 613.794 656.397 611.033 C 657.084 608.534 657.873 606.064 658.76 603.63 C 672.944 565.413 710.701 535.648 750.365 528.315 C 769.81 524.72 794.323 524.465 812.928 531.707 C 819.287 500.897 831.802 475.791 853.496 452.762 C 882.83 421.021 923.764 402.507 966.971 401.439 z"/>
  </g>
</svg>
